<?xml version="1.0" encoding="UTF-8" standalone="no"?>
<!DOCTYPE svg PUBLIC "-//W3C//DTD SVG 1.1//EN"
 "http://www.w3.org/Graphics/SVG/1.1/DTD/svg11.dtd">
<!-- Generated by graphviz version 2.26.3 (20100126.1600)
 -->
<!-- Title: controllers_diagram Pages: 1 -->
<svg width="476pt" height="293pt"
 viewBox="0.00 0.00 476.00 293.00" xmlns="http://www.w3.org/2000/svg" xmlns:xlink="http://www.w3.org/1999/xlink">
<g id="graph1" class="graph" transform="scale(1 1) rotate(0) translate(4 289)">
<title>controllers_diagram</title>
<polygon fill="white" stroke="white" points="-4,5 -4,-289 473,-289 473,5 -4,5"/>
<!-- _diagram_info -->
<g id="node1" class="node"><title>_diagram_info</title>
<text text-anchor="start" x="225" y="-240.3" font-family="Times Roman,serif" font-size="13.00">Controllers diagram</text>
<text text-anchor="start" x="225" y="-223.3" font-family="Times Roman,serif" font-size="13.00">Date: Feb 17 2012 &#45; 20:55</text>
<text text-anchor="start" x="225" y="-206.3" font-family="Times Roman,serif" font-size="13.00">Migration version: 20120215201123</text>
<text text-anchor="start" x="225" y="-189.3" font-family="Times Roman,serif" font-size="13.00">Generated by RailRoady 1.0.6</text>
<text text-anchor="start" x="225" y="-172.3" font-family="Times Roman,serif" font-size="13.00">http://railroady.prestonlee.com</text>
</g>
<!-- HomeController -->
<g id="node2" class="node"><title>HomeController</title>
<polyline fill="none" stroke="black" points="67,-163.5 168,-163.5 "/>
<path fill="none" stroke="black" d="M168,-163.5C174,-163.5 180,-169.5 180,-175.5"/>
<polyline fill="none" stroke="black" points="180,-175.5 180,-271.5 "/>
<path fill="none" stroke="black" d="M180,-271.5C180,-277.5 174,-283.5 168,-283.5"/>
<polyline fill="none" stroke="black" points="168,-283.5 67,-283.5 "/>
<path fill="none" stroke="black" d="M67,-283.5C61,-283.5 55,-277.5 55,-271.5"/>
<polyline fill="none" stroke="black" points="55,-271.5 55,-175.5 "/>
<path fill="none" stroke="black" d="M55,-175.5C55,-169.5 61,-163.5 67,-163.5"/>
<text text-anchor="middle" x="117.5" y="-266.9" font-family="Times Roman,serif" font-size="14.00">HomeController</text>
<polyline fill="none" stroke="black" points="55,-257.5 180,-257.5 "/>
<text text-anchor="start" x="63" y="-240.9" font-family="Times Roman,serif" font-size="14.00">edit</text>
<text text-anchor="start" x="63" y="-222.9" font-family="Times Roman,serif" font-size="14.00">index</text>
<polyline fill="none" stroke="black" points="55,-213.5 180,-213.5 "/>
<polyline fill="none" stroke="black" points="55,-189.5 180,-189.5 "/>
<text text-anchor="start" x="63" y="-172.9" font-family="Times Roman,serif" font-size="14.00">_layout</text>
</g>
<!-- ApplicationController -->
<g id="node3" class="node"><title>ApplicationController</title>
<polyline fill="none" stroke="black" points="13,-1.5 236,-1.5 "/>
<path fill="none" stroke="black" d="M236,-1.5C242,-1.5 248,-7.5 248,-13.5"/>
<polyline fill="none" stroke="black" points="248,-13.5 248,-109.5 "/>
<path fill="none" stroke="black" d="M248,-109.5C248,-115.5 242,-121.5 236,-121.5"/>
<polyline fill="none" stroke="black" points="236,-121.5 13,-121.5 "/>
<path fill="none" stroke="black" d="M13,-121.5C7,-121.5 1,-115.5 1,-109.5"/>
<polyline fill="none" stroke="black" points="1,-109.5 1,-13.5 "/>
<path fill="none" stroke="black" d="M1,-13.5C1,-7.5 7,-1.5 13,-1.5"/>
<text text-anchor="middle" x="124.5" y="-104.9" font-family="Times Roman,serif" font-size="14.00">ApplicationController</text>
<polyline fill="none" stroke="black" points="1,-95.5 248,-95.5 "/>
<text text-anchor="start" x="9" y="-78.9" font-family="Times Roman,serif" font-size="14.00">_one_time_conditions_valid_208?</text>
<text text-anchor="start" x="9" y="-60.9" font-family="Times Roman,serif" font-size="14.00">_one_time_conditions_valid_210?</text>
<polyline fill="none" stroke="black" points="1,-51.5 248,-51.5 "/>
<polyline fill="none" stroke="black" points="1,-27.5 248,-27.5 "/>
<text text-anchor="start" x="9" y="-10.9" font-family="Times Roman,serif" font-size="14.00">_layout</text>
</g>
</g>
</svg>
