<?xml version="1.0" encoding="UTF-8" standalone="no"?>
<!DOCTYPE svg PUBLIC "-//W3C//DTD SVG 1.1//EN"
 "http://www.w3.org/Graphics/SVG/1.1/DTD/svg11.dtd">
<!-- Generated by graphviz version 2.26.3 (20100126.1600)
 -->
<!-- Title: models_diagram Pages: 1 -->
<svg width="1188pt" height="1376pt"
 viewBox="0.00 0.00 1188.41 1376.00" xmlns="http://www.w3.org/2000/svg" xmlns:xlink="http://www.w3.org/1999/xlink">
<g id="graph1" class="graph" transform="scale(1 1) rotate(0) translate(4 1372)">
<title>models_diagram</title>
<polygon fill="white" stroke="white" points="-4,5 -4,-1372 1185.41,-1372 1185.41,5 -4,5"/>
<!-- _diagram_info -->
<g id="node1" class="node"><title>_diagram_info</title>
<text text-anchor="start" x="295.407" y="-1308.8" font-family="Times Roman,serif" font-size="13.00">Models diagram</text>
<text text-anchor="start" x="295.407" y="-1291.8" font-family="Times Roman,serif" font-size="13.00">Date: Feb 17 2012 &#45; 20:55</text>
<text text-anchor="start" x="295.407" y="-1274.8" font-family="Times Roman,serif" font-size="13.00">Migration version: 20120215201123</text>
<text text-anchor="start" x="295.407" y="-1257.8" font-family="Times Roman,serif" font-size="13.00">Generated by RailRoady 1.0.6</text>
<text text-anchor="start" x="295.407" y="-1240.8" font-family="Times Roman,serif" font-size="13.00">http://railroady.prestonlee.com</text>
</g>
<!-- Testquestion -->
<g id="node2" class="node"><title>Testquestion</title>
<polyline fill="none" stroke="black" points="98.9066,-1 239.907,-1 "/>
<path fill="none" stroke="black" d="M239.907,-1C245.907,-1 251.907,-7 251.907,-13"/>
<polyline fill="none" stroke="black" points="251.907,-13 251.907,-95 "/>
<path fill="none" stroke="black" d="M251.907,-95C251.907,-101 245.907,-107 239.907,-107"/>
<polyline fill="none" stroke="black" points="239.907,-107 98.9066,-107 "/>
<path fill="none" stroke="black" d="M98.9066,-107C92.9066,-107 86.9066,-101 86.9066,-95"/>
<polyline fill="none" stroke="black" points="86.9066,-95 86.9066,-13 "/>
<path fill="none" stroke="black" d="M86.9066,-13C86.9066,-7 92.9066,-1 98.9066,-1"/>
<text text-anchor="middle" x="169.407" y="-90.4" font-family="Times Roman,serif" font-size="14.00">Testquestion</text>
<polyline fill="none" stroke="black" points="86.9066,-81 251.907,-81 "/>
<text text-anchor="start" x="94.9066" y="-64.4" font-family="Times Roman,serif" font-size="14.00">question_no :integer</text>
<text text-anchor="start" x="94.9066" y="-46.4" font-family="Times Roman,serif" font-size="14.00">answer :string</text>
<text text-anchor="start" x="94.9066" y="-28.4" font-family="Times Roman,serif" font-size="14.00">created_at :datetime</text>
<text text-anchor="start" x="94.9066" y="-10.4" font-family="Times Roman,serif" font-size="14.00">updated_at :datetime</text>
</g>
<!-- Role -->
<g id="node3" class="node"><title>Role</title>
<polyline fill="none" stroke="black" points="566.907,-1234 707.907,-1234 "/>
<path fill="none" stroke="black" d="M707.907,-1234C713.907,-1234 719.907,-1240 719.907,-1246"/>
<polyline fill="none" stroke="black" points="719.907,-1246 719.907,-1310 "/>
<path fill="none" stroke="black" d="M719.907,-1310C719.907,-1316 713.907,-1322 707.907,-1322"/>
<polyline fill="none" stroke="black" points="707.907,-1322 566.907,-1322 "/>
<path fill="none" stroke="black" d="M566.907,-1322C560.907,-1322 554.907,-1316 554.907,-1310"/>
<polyline fill="none" stroke="black" points="554.907,-1310 554.907,-1246 "/>
<path fill="none" stroke="black" d="M554.907,-1246C554.907,-1240 560.907,-1234 566.907,-1234"/>
<text text-anchor="middle" x="637.407" y="-1305.4" font-family="Times Roman,serif" font-size="14.00">Role</text>
<polyline fill="none" stroke="black" points="554.907,-1296 719.907,-1296 "/>
<text text-anchor="start" x="562.907" y="-1279.4" font-family="Times Roman,serif" font-size="14.00">name :string</text>
<text text-anchor="start" x="562.907" y="-1261.4" font-family="Times Roman,serif" font-size="14.00">created_at :datetime</text>
<text text-anchor="start" x="562.907" y="-1243.4" font-family="Times Roman,serif" font-size="14.00">updated_at :datetime</text>
</g>
<!-- User -->
<g id="node17" class="node"><title>User</title>
<polyline fill="none" stroke="black" points="522.407,-901 752.407,-901 "/>
<path fill="none" stroke="black" d="M752.407,-901C758.407,-901 764.407,-907 764.407,-913"/>
<polyline fill="none" stroke="black" points="764.407,-913 764.407,-1139 "/>
<path fill="none" stroke="black" d="M764.407,-1139C764.407,-1145 758.407,-1151 752.407,-1151"/>
<polyline fill="none" stroke="black" points="752.407,-1151 522.407,-1151 "/>
<path fill="none" stroke="black" d="M522.407,-1151C516.407,-1151 510.407,-1145 510.407,-1139"/>
<polyline fill="none" stroke="black" points="510.407,-1139 510.407,-913 "/>
<path fill="none" stroke="black" d="M510.407,-913C510.407,-907 516.407,-901 522.407,-901"/>
<text text-anchor="middle" x="637.407" y="-1134.4" font-family="Times Roman,serif" font-size="14.00">User</text>
<polyline fill="none" stroke="black" points="510.407,-1125 764.407,-1125 "/>
<text text-anchor="start" x="518.407" y="-1108.4" font-family="Times Roman,serif" font-size="14.00">email :string</text>
<text text-anchor="start" x="518.407" y="-1090.4" font-family="Times Roman,serif" font-size="14.00">encrypted_password :string</text>
<text text-anchor="start" x="518.407" y="-1072.4" font-family="Times Roman,serif" font-size="14.00">reset_password_token :string</text>
<text text-anchor="start" x="518.407" y="-1054.4" font-family="Times Roman,serif" font-size="14.00">reset_password_sent_at :datetime</text>
<text text-anchor="start" x="518.407" y="-1036.4" font-family="Times Roman,serif" font-size="14.00">remember_created_at :datetime</text>
<text text-anchor="start" x="518.407" y="-1018.4" font-family="Times Roman,serif" font-size="14.00">current_sign_in_at :datetime</text>
<text text-anchor="start" x="518.407" y="-1000.4" font-family="Times Roman,serif" font-size="14.00">last_sign_in_at :datetime</text>
<text text-anchor="start" x="518.407" y="-982.4" font-family="Times Roman,serif" font-size="14.00">current_sign_in_ip :string</text>
<text text-anchor="start" x="518.407" y="-964.4" font-family="Times Roman,serif" font-size="14.00">last_sign_in_ip :string</text>
<text text-anchor="start" x="518.407" y="-946.4" font-family="Times Roman,serif" font-size="14.00">authentication_token :string</text>
<text text-anchor="start" x="518.407" y="-928.4" font-family="Times Roman,serif" font-size="14.00">created_at :datetime</text>
<text text-anchor="start" x="518.407" y="-910.4" font-family="Times Roman,serif" font-size="14.00">updated_at :datetime</text>
</g>
<!-- Role&#45;&gt;User -->
<g id="edge2" class="edge"><title>Role&#45;&gt;User</title>
<path fill="none" stroke="#65f631" d="M637.407,-1225.68C637.407,-1206.67 637.407,-1184.21 637.407,-1161.33"/>
<ellipse fill="none" stroke="#65f631" cx="637.407" cy="-1229.82" rx="4" ry="4"/>
<polygon fill="#65f631" stroke="#65f631" points="637.407,-1161.16 641.907,-1151.16 637.407,-1156.16 637.407,-1151.16 637.407,-1151.16 637.407,-1151.16 637.407,-1156.16 632.907,-1151.16 637.407,-1161.16 637.407,-1161.16"/>
</g>
<!-- Forum -->
<g id="node4" class="node"><title>Forum</title>
<polyline fill="none" stroke="black" points="769.907,-190 910.907,-190 "/>
<path fill="none" stroke="black" d="M910.907,-190C916.907,-190 922.907,-196 922.907,-202"/>
<polyline fill="none" stroke="black" points="922.907,-202 922.907,-284 "/>
<path fill="none" stroke="black" d="M922.907,-284C922.907,-290 916.907,-296 910.907,-296"/>
<polyline fill="none" stroke="black" points="910.907,-296 769.907,-296 "/>
<path fill="none" stroke="black" d="M769.907,-296C763.907,-296 757.907,-290 757.907,-284"/>
<polyline fill="none" stroke="black" points="757.907,-284 757.907,-202 "/>
<path fill="none" stroke="black" d="M757.907,-202C757.907,-196 763.907,-190 769.907,-190"/>
<text text-anchor="middle" x="840.407" y="-279.4" font-family="Times Roman,serif" font-size="14.00">Forum</text>
<polyline fill="none" stroke="black" points="757.907,-270 922.907,-270 "/>
<text text-anchor="start" x="765.907" y="-253.4" font-family="Times Roman,serif" font-size="14.00">description :string</text>
<text text-anchor="start" x="765.907" y="-235.4" font-family="Times Roman,serif" font-size="14.00">title :string</text>
<text text-anchor="start" x="765.907" y="-217.4" font-family="Times Roman,serif" font-size="14.00">created_at :datetime</text>
<text text-anchor="start" x="765.907" y="-199.4" font-family="Times Roman,serif" font-size="14.00">updated_at :datetime</text>
</g>
<!-- Post -->
<g id="node13" class="node"><title>Post</title>
<polyline fill="none" stroke="black" points="824.907,-10 965.907,-10 "/>
<path fill="none" stroke="black" d="M965.907,-10C971.907,-10 977.907,-16 977.907,-22"/>
<polyline fill="none" stroke="black" points="977.907,-22 977.907,-86 "/>
<path fill="none" stroke="black" d="M977.907,-86C977.907,-92 971.907,-98 965.907,-98"/>
<polyline fill="none" stroke="black" points="965.907,-98 824.907,-98 "/>
<path fill="none" stroke="black" d="M824.907,-98C818.907,-98 812.907,-92 812.907,-86"/>
<polyline fill="none" stroke="black" points="812.907,-86 812.907,-22 "/>
<path fill="none" stroke="black" d="M812.907,-22C812.907,-16 818.907,-10 824.907,-10"/>
<text text-anchor="middle" x="895.407" y="-81.4" font-family="Times Roman,serif" font-size="14.00">Post</text>
<polyline fill="none" stroke="black" points="812.907,-72 977.907,-72 "/>
<text text-anchor="start" x="820.907" y="-55.4" font-family="Times Roman,serif" font-size="14.00">post :string</text>
<text text-anchor="start" x="820.907" y="-37.4" font-family="Times Roman,serif" font-size="14.00">created_at :datetime</text>
<text text-anchor="start" x="820.907" y="-19.4" font-family="Times Roman,serif" font-size="14.00">updated_at :datetime</text>
</g>
<!-- Forum&#45;&gt;Post -->
<g id="edge4" class="edge"><title>Forum&#45;&gt;Post</title>
<path fill="none" stroke="#f2a066" d="M858.185,-181.906C865.132,-158.035 873.028,-130.899 879.755,-107.783"/>
<ellipse fill="none" stroke="#f2a066" cx="856.991" cy="-186.009" rx="4.00001" ry="4.00001"/>
<polygon fill="#f2a066" stroke="#f2a066" points="879.766,-107.745 886.881,-99.4008 881.163,-102.944 882.561,-98.1434 882.561,-98.1434 882.561,-98.1434 881.163,-102.944 878.24,-96.886 879.766,-107.745 879.766,-107.745"/>
</g>
<!-- Batchtest -->
<g id="node5" class="node"><title>Batchtest</title>
<polyline fill="none" stroke="black" points="1027.91,-721 1168.91,-721 "/>
<path fill="none" stroke="black" d="M1168.91,-721C1174.91,-721 1180.91,-727 1180.91,-733"/>
<polyline fill="none" stroke="black" points="1180.91,-733 1180.91,-833 "/>
<path fill="none" stroke="black" d="M1180.91,-833C1180.91,-839 1174.91,-845 1168.91,-845"/>
<polyline fill="none" stroke="black" points="1168.91,-845 1027.91,-845 "/>
<path fill="none" stroke="black" d="M1027.91,-845C1021.91,-845 1015.91,-839 1015.91,-833"/>
<polyline fill="none" stroke="black" points="1015.91,-833 1015.91,-733 "/>
<path fill="none" stroke="black" d="M1015.91,-733C1015.91,-727 1021.91,-721 1027.91,-721"/>
<text text-anchor="middle" x="1098.41" y="-828.4" font-family="Times Roman,serif" font-size="14.00">Batchtest</text>
<polyline fill="none" stroke="black" points="1015.91,-819 1180.91,-819 "/>
<text text-anchor="start" x="1023.91" y="-802.4" font-family="Times Roman,serif" font-size="14.00">start_test_date :date</text>
<text text-anchor="start" x="1023.91" y="-784.4" font-family="Times Roman,serif" font-size="14.00">end_test_date :date</text>
<text text-anchor="start" x="1023.91" y="-766.4" font-family="Times Roman,serif" font-size="14.00">attempt :integer</text>
<text text-anchor="start" x="1023.91" y="-748.4" font-family="Times Roman,serif" font-size="14.00">created_at :datetime</text>
<text text-anchor="start" x="1023.91" y="-730.4" font-family="Times Roman,serif" font-size="14.00">updated_at :datetime</text>
</g>
<!-- Solvedtest -->
<g id="node18" class="node"><title>Solvedtest</title>
<polyline fill="none" stroke="black" points="990.407,-388 1156.41,-388 "/>
<path fill="none" stroke="black" d="M1156.41,-388C1162.41,-388 1168.41,-394 1168.41,-400"/>
<polyline fill="none" stroke="black" points="1168.41,-400 1168.41,-464 "/>
<path fill="none" stroke="black" d="M1168.41,-464C1168.41,-470 1162.41,-476 1156.41,-476"/>
<polyline fill="none" stroke="black" points="1156.41,-476 990.407,-476 "/>
<path fill="none" stroke="black" d="M990.407,-476C984.407,-476 978.407,-470 978.407,-464"/>
<polyline fill="none" stroke="black" points="978.407,-464 978.407,-400 "/>
<path fill="none" stroke="black" d="M978.407,-400C978.407,-394 984.407,-388 990.407,-388"/>
<text text-anchor="middle" x="1073.41" y="-459.4" font-family="Times Roman,serif" font-size="14.00">Solvedtest</text>
<polyline fill="none" stroke="black" points="978.407,-450 1168.41,-450 "/>
<text text-anchor="start" x="986.407" y="-433.4" font-family="Times Roman,serif" font-size="14.00">questions_answer :string</text>
<text text-anchor="start" x="986.407" y="-415.4" font-family="Times Roman,serif" font-size="14.00">created_at :datetime</text>
<text text-anchor="start" x="986.407" y="-397.4" font-family="Times Roman,serif" font-size="14.00">updated_at :datetime</text>
</g>
<!-- Batchtest&#45;&gt;Solvedtest -->
<g id="edge6" class="edge"><title>Batchtest&#45;&gt;Solvedtest</title>
<path fill="none" stroke="#cc5b32" d="M1093.4,-712.653C1088.64,-645.9 1081.6,-546.995 1077.26,-486.17"/>
<ellipse fill="none" stroke="#cc5b32" cx="1093.68" cy="-716.663" rx="4" ry="4"/>
<polygon fill="#cc5b32" stroke="#cc5b32" points="1077.25,-485.984 1081.03,-475.69 1076.9,-480.997 1076.54,-476.01 1076.54,-476.01 1076.54,-476.01 1076.9,-480.997 1072.05,-476.329 1077.25,-485.984 1077.25,-485.984"/>
</g>
<!-- Topic -->
<g id="node6" class="node"><title>Topic</title>
<polyline fill="none" stroke="black" points="122.907,-379 263.907,-379 "/>
<path fill="none" stroke="black" d="M263.907,-379C269.907,-379 275.907,-385 275.907,-391"/>
<polyline fill="none" stroke="black" points="275.907,-391 275.907,-473 "/>
<path fill="none" stroke="black" d="M275.907,-473C275.907,-479 269.907,-485 263.907,-485"/>
<polyline fill="none" stroke="black" points="263.907,-485 122.907,-485 "/>
<path fill="none" stroke="black" d="M122.907,-485C116.907,-485 110.907,-479 110.907,-473"/>
<polyline fill="none" stroke="black" points="110.907,-473 110.907,-391 "/>
<path fill="none" stroke="black" d="M110.907,-391C110.907,-385 116.907,-379 122.907,-379"/>
<text text-anchor="middle" x="193.407" y="-468.4" font-family="Times Roman,serif" font-size="14.00">Topic</text>
<polyline fill="none" stroke="black" points="110.907,-459 275.907,-459 "/>
<text text-anchor="start" x="118.907" y="-442.4" font-family="Times Roman,serif" font-size="14.00">name :string</text>
<text text-anchor="start" x="118.907" y="-424.4" font-family="Times Roman,serif" font-size="14.00">priority :integer</text>
<text text-anchor="start" x="118.907" y="-406.4" font-family="Times Roman,serif" font-size="14.00">created_at :datetime</text>
<text text-anchor="start" x="118.907" y="-388.4" font-family="Times Roman,serif" font-size="14.00">updated_at :datetime</text>
</g>
<!-- Topic&#45;&gt;Forum -->
<g id="edge10" class="edge"><title>Topic&#45;&gt;Forum</title>
<path fill="none" stroke="#2c57ba" d="M283.782,-405.6C406.389,-369.784 624.278,-306.135 747.951,-270.008"/>
<ellipse fill="none" stroke="#2c57ba" cx="279.846" cy="-406.749" rx="4.00001" ry="4.00001"/>
<polygon fill="#2c57ba" stroke="#2c57ba" points="748.189,-269.938 759.05,-271.454 752.988,-268.536 757.788,-267.134 757.788,-267.134 757.788,-267.134 752.988,-268.536 756.526,-262.815 748.189,-269.938 748.189,-269.938"/>
</g>
<!-- Question -->
<g id="node14" class="node"><title>Question</title>
<polyline fill="none" stroke="black" points="83.9066,-145 254.907,-145 "/>
<path fill="none" stroke="black" d="M254.907,-145C260.907,-145 266.907,-151 266.907,-157"/>
<polyline fill="none" stroke="black" points="266.907,-157 266.907,-329 "/>
<path fill="none" stroke="black" d="M266.907,-329C266.907,-335 260.907,-341 254.907,-341"/>
<polyline fill="none" stroke="black" points="254.907,-341 83.9066,-341 "/>
<path fill="none" stroke="black" d="M83.9066,-341C77.9066,-341 71.9066,-335 71.9066,-329"/>
<polyline fill="none" stroke="black" points="71.9066,-329 71.9066,-157 "/>
<path fill="none" stroke="black" d="M71.9066,-157C71.9066,-151 77.9066,-145 83.9066,-145"/>
<text text-anchor="middle" x="169.407" y="-324.4" font-family="Times Roman,serif" font-size="14.00">Question</text>
<polyline fill="none" stroke="black" points="71.9066,-315 266.907,-315 "/>
<text text-anchor="start" x="79.9066" y="-298.4" font-family="Times Roman,serif" font-size="14.00">question_number :integer</text>
<text text-anchor="start" x="79.9066" y="-280.4" font-family="Times Roman,serif" font-size="14.00">question :string</text>
<text text-anchor="start" x="79.9066" y="-262.4" font-family="Times Roman,serif" font-size="14.00">option_a :string</text>
<text text-anchor="start" x="79.9066" y="-244.4" font-family="Times Roman,serif" font-size="14.00">option_b :string</text>
<text text-anchor="start" x="79.9066" y="-226.4" font-family="Times Roman,serif" font-size="14.00">option_c :string</text>
<text text-anchor="start" x="79.9066" y="-208.4" font-family="Times Roman,serif" font-size="14.00">option_d :string</text>
<text text-anchor="start" x="79.9066" y="-190.4" font-family="Times Roman,serif" font-size="14.00">answer :string</text>
<text text-anchor="start" x="79.9066" y="-172.4" font-family="Times Roman,serif" font-size="14.00">created_at :datetime</text>
<text text-anchor="start" x="79.9066" y="-154.4" font-family="Times Roman,serif" font-size="14.00">updated_at :datetime</text>
</g>
<!-- Topic&#45;&gt;Question -->
<g id="edge8" class="edge"><title>Topic&#45;&gt;Question</title>
<path fill="none" stroke="#911a7f" d="M185.62,-370.682C184.832,-364.476 184.016,-358.052 183.189,-351.536"/>
<ellipse fill="none" stroke="#911a7f" cx="186.153" cy="-374.882" rx="4.00001" ry="4.00001"/>
<polygon fill="#911a7f" stroke="#911a7f" points="183.141,-351.161 186.346,-340.674 182.512,-346.201 181.882,-341.241 181.882,-341.241 181.882,-341.241 182.512,-346.201 177.417,-341.808 183.141,-351.161 183.141,-351.161"/>
</g>
<!-- Batch -->
<g id="node7" class="node"><title>Batch</title>
<polyline fill="none" stroke="black" points="621.907,-703 762.907,-703 "/>
<path fill="none" stroke="black" d="M762.907,-703C768.907,-703 774.907,-709 774.907,-715"/>
<polyline fill="none" stroke="black" points="774.907,-715 774.907,-851 "/>
<path fill="none" stroke="black" d="M774.907,-851C774.907,-857 768.907,-863 762.907,-863"/>
<polyline fill="none" stroke="black" points="762.907,-863 621.907,-863 "/>
<path fill="none" stroke="black" d="M621.907,-863C615.907,-863 609.907,-857 609.907,-851"/>
<polyline fill="none" stroke="black" points="609.907,-851 609.907,-715 "/>
<path fill="none" stroke="black" d="M609.907,-715C609.907,-709 615.907,-703 621.907,-703"/>
<text text-anchor="middle" x="692.407" y="-846.4" font-family="Times Roman,serif" font-size="14.00">Batch</text>
<polyline fill="none" stroke="black" points="609.907,-837 774.907,-837 "/>
<text text-anchor="start" x="617.907" y="-820.4" font-family="Times Roman,serif" font-size="14.00">description :string</text>
<text text-anchor="start" x="617.907" y="-802.4" font-family="Times Roman,serif" font-size="14.00">start_date :date</text>
<text text-anchor="start" x="617.907" y="-784.4" font-family="Times Roman,serif" font-size="14.00">end_date :date</text>
<text text-anchor="start" x="617.907" y="-766.4" font-family="Times Roman,serif" font-size="14.00">group :string</text>
<text text-anchor="start" x="617.907" y="-748.4" font-family="Times Roman,serif" font-size="14.00">incharge :string</text>
<text text-anchor="start" x="617.907" y="-730.4" font-family="Times Roman,serif" font-size="14.00">created_at :datetime</text>
<text text-anchor="start" x="617.907" y="-712.4" font-family="Times Roman,serif" font-size="14.00">updated_at :datetime</text>
</g>
<!-- Batchstudent -->
<g id="node11" class="node"><title>Batchstudent</title>
<polyline fill="none" stroke="black" points="731.907,-550 872.907,-550 "/>
<path fill="none" stroke="black" d="M872.907,-550C878.907,-550 884.907,-556 884.907,-562"/>
<polyline fill="none" stroke="black" points="884.907,-562 884.907,-626 "/>
<path fill="none" stroke="black" d="M884.907,-626C884.907,-632 878.907,-638 872.907,-638"/>
<polyline fill="none" stroke="black" points="872.907,-638 731.907,-638 "/>
<path fill="none" stroke="black" d="M731.907,-638C725.907,-638 719.907,-632 719.907,-626"/>
<polyline fill="none" stroke="black" points="719.907,-626 719.907,-562 "/>
<path fill="none" stroke="black" d="M719.907,-562C719.907,-556 725.907,-550 731.907,-550"/>
<text text-anchor="middle" x="802.407" y="-621.4" font-family="Times Roman,serif" font-size="14.00">Batchstudent</text>
<polyline fill="none" stroke="black" points="719.907,-612 884.907,-612 "/>
<text text-anchor="start" x="727.907" y="-595.4" font-family="Times Roman,serif" font-size="14.00">report :string</text>
<text text-anchor="start" x="727.907" y="-577.4" font-family="Times Roman,serif" font-size="14.00">created_at :datetime</text>
<text text-anchor="start" x="727.907" y="-559.4" font-family="Times Roman,serif" font-size="14.00">updated_at :datetime</text>
</g>
<!-- Batch&#45;&gt;Batchstudent -->
<g id="edge14" class="edge"><title>Batch&#45;&gt;Batchstudent</title>
<path fill="none" stroke="#f3904c" d="M743.15,-695.814C752.857,-679.135 762.743,-662.15 771.587,-646.954"/>
<ellipse fill="none" stroke="#f3904c" cx="741.069" cy="-699.39" rx="4.00002" ry="4.00002"/>
<polygon fill="#f3904c" stroke="#f3904c" points="771.634,-646.873 780.553,-640.494 774.149,-642.551 776.664,-638.23 776.664,-638.23 776.664,-638.23 774.149,-642.551 772.775,-635.966 771.634,-646.873 771.634,-646.873"/>
</g>
<!-- Jktest -->
<g id="node19" class="node"><title>Jktest</title>
<polyline fill="none" stroke="black" points="528.407,-541 690.407,-541 "/>
<path fill="none" stroke="black" d="M690.407,-541C696.407,-541 702.407,-547 702.407,-553"/>
<polyline fill="none" stroke="black" points="702.407,-553 702.407,-635 "/>
<path fill="none" stroke="black" d="M702.407,-635C702.407,-641 696.407,-647 690.407,-647"/>
<polyline fill="none" stroke="black" points="690.407,-647 528.407,-647 "/>
<path fill="none" stroke="black" d="M528.407,-647C522.407,-647 516.407,-641 516.407,-635"/>
<polyline fill="none" stroke="black" points="516.407,-635 516.407,-553 "/>
<path fill="none" stroke="black" d="M516.407,-553C516.407,-547 522.407,-541 528.407,-541"/>
<text text-anchor="middle" x="609.407" y="-630.4" font-family="Times Roman,serif" font-size="14.00">Jktest</text>
<polyline fill="none" stroke="black" points="516.407,-621 702.407,-621 "/>
<text text-anchor="start" x="524.407" y="-604.4" font-family="Times Roman,serif" font-size="14.00">name :string</text>
<text text-anchor="start" x="524.407" y="-586.4" font-family="Times Roman,serif" font-size="14.00">no_of_questions :integer</text>
<text text-anchor="start" x="524.407" y="-568.4" font-family="Times Roman,serif" font-size="14.00">created_at :datetime</text>
<text text-anchor="start" x="524.407" y="-550.4" font-family="Times Roman,serif" font-size="14.00">updated_at :datetime</text>
</g>
<!-- Batch&#45;&gt;Jktest -->
<g id="edge12" class="edge"><title>Batch&#45;&gt;Jktest</title>
<path fill="none" stroke="#7c94ea" d="M653.119,-693.538C647.619,-681.015 642.068,-668.373 636.852,-656.496"/>
<polygon fill="#7c94ea" stroke="#7c94ea" points="653.186,-693.691 653.087,-704.656 655.197,-698.269 657.207,-702.847 657.207,-702.847 657.207,-702.847 655.197,-698.269 661.327,-701.038 653.186,-693.691 653.186,-693.691"/>
<polygon fill="#7c94ea" stroke="#7c94ea" points="636.769,-656.308 636.869,-645.343 634.759,-651.73 632.748,-647.152 632.748,-647.152 632.748,-647.152 634.759,-651.73 628.628,-648.961 636.769,-656.308 636.769,-656.308"/>
</g>
<!-- Student -->
<g id="node8" class="node"><title>Student</title>
<polyline fill="none" stroke="black" points="749.407,-1189 895.407,-1189 "/>
<path fill="none" stroke="black" d="M895.407,-1189C901.407,-1189 907.407,-1195 907.407,-1201"/>
<polyline fill="none" stroke="black" points="907.407,-1201 907.407,-1355 "/>
<path fill="none" stroke="black" d="M907.407,-1355C907.407,-1361 901.407,-1367 895.407,-1367"/>
<polyline fill="none" stroke="black" points="895.407,-1367 749.407,-1367 "/>
<path fill="none" stroke="black" d="M749.407,-1367C743.407,-1367 737.407,-1361 737.407,-1355"/>
<polyline fill="none" stroke="black" points="737.407,-1355 737.407,-1201 "/>
<path fill="none" stroke="black" d="M737.407,-1201C737.407,-1195 743.407,-1189 749.407,-1189"/>
<text text-anchor="middle" x="822.407" y="-1350.4" font-family="Times Roman,serif" font-size="14.00">Student</text>
<polyline fill="none" stroke="black" points="737.407,-1341 907.407,-1341 "/>
<text text-anchor="start" x="745.407" y="-1324.4" font-family="Times Roman,serif" font-size="14.00">name :string</text>
<text text-anchor="start" x="745.407" y="-1306.4" font-family="Times Roman,serif" font-size="14.00">address :string</text>
<text text-anchor="start" x="745.407" y="-1288.4" font-family="Times Roman,serif" font-size="14.00">phone_number :string</text>
<text text-anchor="start" x="745.407" y="-1270.4" font-family="Times Roman,serif" font-size="14.00">group :string</text>
<text text-anchor="start" x="745.407" y="-1252.4" font-family="Times Roman,serif" font-size="14.00">email :string</text>
<text text-anchor="start" x="745.407" y="-1234.4" font-family="Times Roman,serif" font-size="14.00">parent_contact :string</text>
<text text-anchor="start" x="745.407" y="-1216.4" font-family="Times Roman,serif" font-size="14.00">created_at :datetime</text>
<text text-anchor="start" x="745.407" y="-1198.4" font-family="Times Roman,serif" font-size="14.00">updated_at :datetime</text>
</g>
<!-- Ability -->
<g id="node9" class="node"><title>Ability</title>
<polygon fill="none" stroke="black" points="925.407,-1252 925.407,-1304 985.407,-1304 985.407,-1252 925.407,-1252"/>
<text text-anchor="middle" x="955.407" y="-1287.4" font-family="Times Roman,serif" font-size="14.00">Ability</text>
<polyline fill="none" stroke="black" points="925.407,-1278 985.407,-1278 "/>
<text text-anchor="middle" x="955.407" y="-1261.4" font-family="Times Roman,serif" font-size="14.00"> </text>
</g>
<!-- Teacher -->
<g id="node10" class="node"><title>Teacher</title>
<polyline fill="none" stroke="black" points="341.907,-523 486.907,-523 "/>
<path fill="none" stroke="black" d="M486.907,-523C492.907,-523 498.907,-529 498.907,-535"/>
<polyline fill="none" stroke="black" points="498.907,-535 498.907,-653 "/>
<path fill="none" stroke="black" d="M498.907,-653C498.907,-659 492.907,-665 486.907,-665"/>
<polyline fill="none" stroke="black" points="486.907,-665 341.907,-665 "/>
<path fill="none" stroke="black" d="M341.907,-665C335.907,-665 329.907,-659 329.907,-653"/>
<polyline fill="none" stroke="black" points="329.907,-653 329.907,-535 "/>
<path fill="none" stroke="black" d="M329.907,-535C329.907,-529 335.907,-523 341.907,-523"/>
<text text-anchor="middle" x="414.407" y="-648.4" font-family="Times Roman,serif" font-size="14.00">Teacher</text>
<polyline fill="none" stroke="black" points="329.907,-639 498.907,-639 "/>
<text text-anchor="start" x="337.907" y="-622.4" font-family="Times Roman,serif" font-size="14.00">name :string</text>
<text text-anchor="start" x="337.907" y="-604.4" font-family="Times Roman,serif" font-size="14.00">phone_number :string</text>
<text text-anchor="start" x="337.907" y="-586.4" font-family="Times Roman,serif" font-size="14.00">address :string</text>
<text text-anchor="start" x="337.907" y="-568.4" font-family="Times Roman,serif" font-size="14.00">email :string</text>
<text text-anchor="start" x="337.907" y="-550.4" font-family="Times Roman,serif" font-size="14.00">created_at :datetime</text>
<text text-anchor="start" x="337.907" y="-532.4" font-family="Times Roman,serif" font-size="14.00">updated_at :datetime</text>
</g>
<!-- Subject -->
<g id="node12" class="node"><title>Subject</title>
<polyline fill="none" stroke="black" points="372.907,-739 513.907,-739 "/>
<path fill="none" stroke="black" d="M513.907,-739C519.907,-739 525.907,-745 525.907,-751"/>
<polyline fill="none" stroke="black" points="525.907,-751 525.907,-815 "/>
<path fill="none" stroke="black" d="M525.907,-815C525.907,-821 519.907,-827 513.907,-827"/>
<polyline fill="none" stroke="black" points="513.907,-827 372.907,-827 "/>
<path fill="none" stroke="black" d="M372.907,-827C366.907,-827 360.907,-821 360.907,-815"/>
<polyline fill="none" stroke="black" points="360.907,-815 360.907,-751 "/>
<path fill="none" stroke="black" d="M360.907,-751C360.907,-745 366.907,-739 372.907,-739"/>
<text text-anchor="middle" x="443.407" y="-810.4" font-family="Times Roman,serif" font-size="14.00">Subject</text>
<polyline fill="none" stroke="black" points="360.907,-801 525.907,-801 "/>
<text text-anchor="start" x="368.907" y="-784.4" font-family="Times Roman,serif" font-size="14.00">name :string</text>
<text text-anchor="start" x="368.907" y="-766.4" font-family="Times Roman,serif" font-size="14.00">created_at :datetime</text>
<text text-anchor="start" x="368.907" y="-748.4" font-family="Times Roman,serif" font-size="14.00">updated_at :datetime</text>
</g>
<!-- Subject&#45;&gt;Teacher -->
<g id="edge16" class="edge"><title>Subject&#45;&gt;Teacher</title>
<path fill="none" stroke="#5b8e34" d="M435.353,-730.511C432.717,-713.336 429.725,-693.837 426.844,-675.061"/>
<ellipse fill="none" stroke="#5b8e34" cx="436.001" cy="-734.734" rx="4.00001" ry="4.00001"/>
<polygon fill="#5b8e34" stroke="#5b8e34" points="426.821,-674.909 429.752,-664.342 426.063,-669.967 425.305,-665.025 425.305,-665.025 425.305,-665.025 426.063,-669.967 420.857,-665.707 426.821,-674.909 426.821,-674.909"/>
</g>
<!-- Chapter -->
<g id="node15" class="node"><title>Chapter</title>
<polyline fill="none" stroke="black" points="136.407,-541 300.407,-541 "/>
<path fill="none" stroke="black" d="M300.407,-541C306.407,-541 312.407,-547 312.407,-553"/>
<polyline fill="none" stroke="black" points="312.407,-553 312.407,-635 "/>
<path fill="none" stroke="black" d="M312.407,-635C312.407,-641 306.407,-647 300.407,-647"/>
<polyline fill="none" stroke="black" points="300.407,-647 136.407,-647 "/>
<path fill="none" stroke="black" d="M136.407,-647C130.407,-647 124.407,-641 124.407,-635"/>
<polyline fill="none" stroke="black" points="124.407,-635 124.407,-553 "/>
<path fill="none" stroke="black" d="M124.407,-553C124.407,-547 130.407,-541 136.407,-541"/>
<text text-anchor="middle" x="218.407" y="-630.4" font-family="Times Roman,serif" font-size="14.00">Chapter</text>
<polyline fill="none" stroke="black" points="124.407,-621 312.407,-621 "/>
<text text-anchor="start" x="132.407" y="-604.4" font-family="Times Roman,serif" font-size="14.00">chapter_number :integer</text>
<text text-anchor="start" x="132.407" y="-586.4" font-family="Times Roman,serif" font-size="14.00">name :string</text>
<text text-anchor="start" x="132.407" y="-568.4" font-family="Times Roman,serif" font-size="14.00">created_at :datetime</text>
<text text-anchor="start" x="132.407" y="-550.4" font-family="Times Roman,serif" font-size="14.00">updated_at :datetime</text>
</g>
<!-- Subject&#45;&gt;Chapter -->
<g id="edge18" class="edge"><title>Subject&#45;&gt;Chapter</title>
<path fill="none" stroke="#4c8a44" d="M384.72,-733.703C355.581,-709.227 320.142,-679.458 289.477,-653.699"/>
<ellipse fill="none" stroke="#4c8a44" cx="387.875" cy="-736.354" rx="4.00002" ry="4.00002"/>
<polygon fill="#4c8a44" stroke="#4c8a44" points="289.447,-653.674 284.684,-643.796 285.618,-650.458 281.79,-647.242 281.79,-647.242 281.79,-647.242 285.618,-650.458 278.896,-650.688 289.447,-653.674 289.447,-653.674"/>
</g>
<!-- Subject&#45;&gt;Jktest -->
<g id="edge20" class="edge"><title>Subject&#45;&gt;Jktest</title>
<path fill="none" stroke="#e2af3b" d="M487.792,-732.465C508.78,-708.569 534.008,-679.845 556.032,-654.769"/>
<ellipse fill="none" stroke="#e2af3b" cx="484.966" cy="-735.683" rx="4.00002" ry="4.00002"/>
<polygon fill="#e2af3b" stroke="#e2af3b" points="556.157,-654.627 566.138,-650.083 559.457,-650.87 562.757,-647.114 562.757,-647.114 562.757,-647.114 559.457,-650.87 559.375,-644.144 556.157,-654.627 556.157,-654.627"/>
</g>
<!-- Question&#45;&gt;Testquestion -->
<g id="edge22" class="edge"><title>Question&#45;&gt;Testquestion</title>
<path fill="none" stroke="#b3e11d" d="M169.407,-136.732C169.407,-130.231 169.407,-123.804 169.407,-117.579"/>
<ellipse fill="none" stroke="#b3e11d" cx="169.407" cy="-140.902" rx="4" ry="4"/>
<polygon fill="#b3e11d" stroke="#b3e11d" points="169.407,-117.315 173.907,-107.315 169.407,-112.315 169.407,-107.315 169.407,-107.315 169.407,-107.315 169.407,-112.315 164.907,-107.315 169.407,-117.315 169.407,-117.315"/>
</g>
<!-- Chapter&#45;&gt;Topic -->
<g id="edge24" class="edge"><title>Chapter&#45;&gt;Topic</title>
<path fill="none" stroke="#25b5f9" d="M208.971,-532.86C207.079,-520.6 205.088,-507.694 203.185,-495.362"/>
<ellipse fill="none" stroke="#25b5f9" cx="209.611" cy="-537.002" rx="4.00001" ry="4.00001"/>
<polygon fill="#25b5f9" stroke="#25b5f9" points="203.136,-495.047 206.058,-484.478 202.374,-490.106 201.611,-485.164 201.611,-485.164 201.611,-485.164 202.374,-490.106 197.164,-485.85 203.136,-495.047 203.136,-495.047"/>
</g>
<!-- Admin -->
<g id="node16" class="node"><title>Admin</title>
<polyline fill="none" stroke="black" points="1014.91,-1216 1159.91,-1216 "/>
<path fill="none" stroke="black" d="M1159.91,-1216C1165.91,-1216 1171.91,-1222 1171.91,-1228"/>
<polyline fill="none" stroke="black" points="1171.91,-1228 1171.91,-1328 "/>
<path fill="none" stroke="black" d="M1171.91,-1328C1171.91,-1334 1165.91,-1340 1159.91,-1340"/>
<polyline fill="none" stroke="black" points="1159.91,-1340 1014.91,-1340 "/>
<path fill="none" stroke="black" d="M1014.91,-1340C1008.91,-1340 1002.91,-1334 1002.91,-1328"/>
<polyline fill="none" stroke="black" points="1002.91,-1328 1002.91,-1228 "/>
<path fill="none" stroke="black" d="M1002.91,-1228C1002.91,-1222 1008.91,-1216 1014.91,-1216"/>
<text text-anchor="middle" x="1087.41" y="-1323.4" font-family="Times Roman,serif" font-size="14.00">Admin</text>
<polyline fill="none" stroke="black" points="1002.91,-1314 1171.91,-1314 "/>
<text text-anchor="start" x="1010.91" y="-1297.4" font-family="Times Roman,serif" font-size="14.00">name :string</text>
<text text-anchor="start" x="1010.91" y="-1279.4" font-family="Times Roman,serif" font-size="14.00">phone_number :string</text>
<text text-anchor="start" x="1010.91" y="-1261.4" font-family="Times Roman,serif" font-size="14.00">email :string</text>
<text text-anchor="start" x="1010.91" y="-1243.4" font-family="Times Roman,serif" font-size="14.00">created_at :datetime</text>
<text text-anchor="start" x="1010.91" y="-1225.4" font-family="Times Roman,serif" font-size="14.00">updated_at :datetime</text>
</g>
<!-- User&#45;&gt;Testquestion -->
<g id="edge42" class="edge"><title>User&#45;&gt;Testquestion</title>
<path fill="none" stroke="#4ce6af" d="M501.811,-1007.52C344.354,-983.071 98.7002,-934.647 40.4066,-864 -36.176,-771.188 20.4066,-714.329 20.4066,-594 20.4066,-594 20.4066,-594 20.4066,-432 20.4066,-302.581 0.506368,-257.105 63.4066,-144 69.3318,-133.345 77.0442,-123.392 85.6081,-114.278"/>
<ellipse fill="none" stroke="#4ce6af" cx="506.224" cy="-1008.2" rx="4.00001" ry="4.00001"/>
<polygon fill="#4ce6af" stroke="#4ce6af" points="85.6169,-114.269 95.8439,-110.312 89.1289,-110.71 92.6409,-107.151 92.6409,-107.151 92.6409,-107.151 89.1289,-110.71 89.4379,-103.991 85.6169,-114.269 85.6169,-114.269"/>
</g>
<!-- User&#45;&gt;Forum -->
<g id="edge32" class="edge"><title>User&#45;&gt;Forum</title>
<path fill="none" stroke="#1ac1db" d="M770.476,-912.825C784.971,-897.285 798.69,-880.851 810.407,-864 864.88,-785.658 874.593,-759.546 893.407,-666 918.858,-539.45 885.03,-388.997 860.881,-305.949"/>
<ellipse fill="none" stroke="#1ac1db" cx="767.415" cy="-916.06" rx="4.00002" ry="4.00002"/>
<polygon fill="#1ac1db" stroke="#1ac1db" points="860.823,-305.752 862.305,-294.886 859.406,-300.957 857.989,-296.162 857.989,-296.162 857.989,-296.162 859.406,-300.957 853.674,-297.437 860.823,-305.752 860.823,-305.752"/>
</g>
<!-- User&#45;&gt;Batchtest -->
<g id="edge44" class="edge"><title>User&#45;&gt;Batchtest</title>
<path fill="none" stroke="#51909d" d="M772.452,-976.738C843.357,-948.268 930.256,-909.163 1002.41,-864 1008.63,-860.102 1014.88,-855.828 1021.04,-851.343"/>
<ellipse fill="none" stroke="#51909d" cx="768.482" cy="-978.323" rx="4.00001" ry="4.00001"/>
<polygon fill="#51909d" stroke="#51909d" points="1021.37,-851.101 1032.07,-848.717 1025.37,-848.107 1029.38,-845.113 1029.38,-845.113 1029.38,-845.113 1025.37,-848.107 1026.68,-841.509 1021.37,-851.101 1021.37,-851.101"/>
</g>
<!-- User&#45;&gt;Topic -->
<g id="edge30" class="edge"><title>User&#45;&gt;Topic</title>
<path fill="none" stroke="#55ba28" d="M502.231,-989.955C423.421,-964.133 325.48,-923.322 252.407,-864 169.326,-796.554 147.301,-768.148 115.407,-666 96.3319,-604.909 93.0381,-581.964 115.407,-522 119.169,-511.914 124.627,-502.208 130.935,-493.145"/>
<ellipse fill="none" stroke="#55ba28" cx="506.475" cy="-991.33" rx="4.00001" ry="4.00001"/>
<polygon fill="#55ba28" stroke="#55ba28" points="131.003,-493.054 140.564,-487.683 133.973,-489.032 136.944,-485.01 136.944,-485.01 136.944,-485.01 133.973,-489.032 133.324,-482.336 131.003,-493.054 131.003,-493.054"/>
</g>
<!-- User&#45;&gt;Batch -->
<g id="edge38" class="edge"><title>User&#45;&gt;Batch</title>
<path fill="none" stroke="#a80385" d="M667.542,-892.858C669.035,-886.259 670.518,-879.706 671.973,-873.278"/>
<ellipse fill="none" stroke="#a80385" cx="666.595" cy="-897.04" rx="4.00001" ry="4.00001"/>
<polygon fill="#a80385" stroke="#a80385" points="672.026,-873.044 678.623,-864.284 673.13,-868.167 674.234,-863.291 674.234,-863.291 674.234,-863.291 673.13,-868.167 669.845,-862.297 672.026,-873.044 672.026,-873.044"/>
</g>
<!-- User&#45;&gt;Batchstudent -->
<g id="edge40" class="edge"><title>User&#45;&gt;Batchstudent</title>
<path fill="none" stroke="#1926b7" d="M767.856,-893.97C773.783,-884.253 779.057,-874.234 783.407,-864 813.168,-793.973 812.882,-704.514 808.653,-648.219"/>
<ellipse fill="none" stroke="#1926b7" cx="765.561" cy="-897.608" rx="4.00002" ry="4.00002"/>
<polygon fill="#1926b7" stroke="#1926b7" points="808.641,-648.073 812.308,-637.738 808.232,-643.089 807.823,-638.106 807.823,-638.106 807.823,-638.106 808.232,-643.089 803.338,-638.474 808.641,-648.073 808.641,-648.073"/>
</g>
<!-- User&#45;&gt;Subject -->
<g id="edge26" class="edge"><title>User&#45;&gt;Subject</title>
<path fill="none" stroke="#41efa4" d="M532.362,-894.423C515.556,-873.373 499.075,-852.729 484.955,-835.042"/>
<ellipse fill="none" stroke="#41efa4" cx="535.069" cy="-897.815" rx="4.00002" ry="4.00002"/>
<polygon fill="#41efa4" stroke="#41efa4" points="484.88,-834.948 482.157,-824.326 481.76,-831.041 478.64,-827.133 478.64,-827.133 478.64,-827.133 481.76,-831.041 475.124,-829.941 484.88,-834.948 484.88,-834.948"/>
</g>
<!-- User&#45;&gt;Post -->
<g id="edge34" class="edge"><title>User&#45;&gt;Post</title>
<path fill="none" stroke="#dff3b8" d="M771.118,-950.056C804.295,-926.059 837.234,-897.047 861.407,-864 936.003,-762.019 950.407,-720.351 950.407,-594 950.407,-594 950.407,-594 950.407,-432 950.407,-303.722 959.8,-269.096 931.407,-144 928.7,-132.076 924.63,-119.671 920.189,-108.019"/>
<ellipse fill="none" stroke="#dff3b8" cx="767.739" cy="-952.466" rx="4.00002" ry="4.00002"/>
<polygon fill="#dff3b8" stroke="#dff3b8" points="920.075,-107.732 920.576,-96.7771 918.234,-103.083 916.392,-98.4344 916.392,-98.4344 916.392,-98.4344 918.234,-103.083 912.208,-100.092 920.075,-107.732 920.075,-107.732"/>
</g>
<!-- User&#45;&gt;Question -->
<g id="edge48" class="edge"><title>User&#45;&gt;Question</title>
<path fill="none" stroke="#9d6030" d="M502.378,-1000.12C367.881,-971.504 174.531,-921.746 125.407,-864 -14.7079,-699.293 48.6642,-587.457 102.407,-378 104.747,-368.877 107.754,-359.651 111.194,-350.53"/>
<ellipse fill="none" stroke="#9d6030" cx="506.431" cy="-1000.97" rx="4.00001" ry="4.00001"/>
<polygon fill="#9d6030" stroke="#9d6030" points="111.256,-350.375 119.112,-342.724 113.091,-345.724 114.926,-341.073 114.926,-341.073 114.926,-341.073 113.091,-345.724 110.74,-339.421 111.256,-350.375 111.256,-350.375"/>
</g>
<!-- User&#45;&gt;Chapter -->
<g id="edge28" class="edge"><title>User&#45;&gt;Chapter</title>
<path fill="none" stroke="#8d74de" d="M502.97,-970.373C451.113,-943.954 394.322,-908.34 352.407,-864 295.878,-804.202 258.237,-715.996 237.608,-656.842"/>
<ellipse fill="none" stroke="#8d74de" cx="506.679" cy="-972.241" rx="4.00002" ry="4.00002"/>
<polygon fill="#8d74de" stroke="#8d74de" points="237.56,-656.703 238.577,-645.784 235.94,-651.973 234.32,-647.242 234.32,-647.242 234.32,-647.242 235.94,-651.973 230.063,-648.7 237.56,-656.703 237.56,-656.703"/>
</g>
<!-- User&#45;&gt;Solvedtest -->
<g id="edge46" class="edge"><title>User&#45;&gt;Solvedtest</title>
<path fill="none" stroke="#fc01d4" d="M772.419,-988.779C839.266,-963.792 915.847,-924.174 964.407,-864 967.427,-860.257 1031.61,-601.307 1060.05,-486.167"/>
<ellipse fill="none" stroke="#fc01d4" cx="768.49" cy="-990.223" rx="4.00001" ry="4.00001"/>
<polygon fill="#fc01d4" stroke="#fc01d4" points="1060.13,-485.854 1066.89,-477.224 1061.32,-481 1062.52,-476.145 1062.52,-476.145 1062.52,-476.145 1061.32,-481 1058.15,-475.067 1060.13,-485.854 1060.13,-485.854"/>
</g>
<!-- User&#45;&gt;Jktest -->
<g id="edge36" class="edge"><title>User&#45;&gt;Jktest</title>
<path fill="none" stroke="#3e2ddc" d="M605.381,-892.73C603.797,-883.047 602.438,-873.397 601.407,-864 593.55,-792.43 598.745,-773.951 601.407,-702 601.943,-687.498 602.883,-671.922 603.935,-657.239"/>
<ellipse fill="none" stroke="#3e2ddc" cx="606.094" cy="-896.923" rx="4.00001" ry="4.00001"/>
<polygon fill="#3e2ddc" stroke="#3e2ddc" points="603.937,-657.213 609.165,-647.574 604.307,-652.227 604.677,-647.241 604.677,-647.241 604.677,-647.241 604.307,-652.227 600.19,-646.908 603.937,-657.213 603.937,-657.213"/>
</g>
<!-- Jktest&#45;&gt;Testquestion -->
<g id="edge50" class="edge"><title>Jktest&#45;&gt;Testquestion</title>
<path fill="none" stroke="#206aea" d="M571.231,-533.905C512.95,-444.326 395.81,-272.553 275.407,-144 265.912,-133.862 255.33,-123.736 244.631,-114.127"/>
<ellipse fill="none" stroke="#206aea" cx="573.488" cy="-537.381" rx="4.00002" ry="4.00002"/>
<polygon fill="#206aea" stroke="#206aea" points="244.323,-113.854 239.814,-103.858 240.578,-110.542 236.833,-107.229 236.833,-107.229 236.833,-107.229 240.578,-110.542 233.851,-110.599 244.323,-113.854 244.323,-113.854"/>
</g>
<!-- Jktest&#45;&gt;Solvedtest -->
<g id="edge52" class="edge"><title>Jktest&#45;&gt;Solvedtest</title>
<path fill="none" stroke="#7d8ebe" d="M684.052,-536.731C692.994,-531.266 702.218,-526.205 711.407,-522 793.661,-484.359 893.925,-461 968.058,-447.544"/>
<ellipse fill="none" stroke="#7d8ebe" cx="680.662" cy="-538.857" rx="4.00002" ry="4.00002"/>
<polygon fill="#7d8ebe" stroke="#7d8ebe" points="968.496,-447.466 979.131,-450.141 973.418,-446.588 978.341,-445.711 978.341,-445.711 978.341,-445.711 973.418,-446.588 977.551,-441.28 968.496,-447.466 968.496,-447.466"/>
</g>
</g>
</svg>
