<?xml version="1.0" encoding="UTF-8" standalone="no"?>
<!DOCTYPE svg PUBLIC "-//W3C//DTD SVG 1.1//EN"
 "http://www.w3.org/Graphics/SVG/1.1/DTD/svg11.dtd">
<!-- Generated by graphviz version 2.26.3 (20100126.1600)
 -->
<!-- Title: models_diagram Pages: 1 -->
<svg width="848pt" height="546pt"
 viewBox="0.00 0.00 848.00 546.00" xmlns="http://www.w3.org/2000/svg" xmlns:xlink="http://www.w3.org/1999/xlink">
<g id="graph1" class="graph" transform="scale(1 1) rotate(0) translate(4 542)">
<title>models_diagram</title>
<polygon fill="white" stroke="white" points="-4,5 -4,-542 845,-542 845,5 -4,5"/>
<!-- _diagram_info -->
<g id="node1" class="node"><title>_diagram_info</title>
<text text-anchor="start" x="120" y="-521.8" font-family="Times Roman,serif" font-size="13.00">Models diagram</text>
<text text-anchor="start" x="120" y="-504.8" font-family="Times Roman,serif" font-size="13.00">Date: Feb 17 2012 &#45; 20:55</text>
<text text-anchor="start" x="120" y="-487.8" font-family="Times Roman,serif" font-size="13.00">Migration version: 20120215201123</text>
<text text-anchor="start" x="120" y="-470.8" font-family="Times Roman,serif" font-size="13.00">Generated by RailRoady 1.0.6</text>
<text text-anchor="start" x="120" y="-453.8" font-family="Times Roman,serif" font-size="13.00">http://railroady.prestonlee.com</text>
</g>
<!-- Testquestion -->
<g id="node2" class="node"><title>Testquestion</title>
<ellipse fill="none" stroke="black" cx="102" cy="-19" rx="73.0388" ry="18.3848"/>
<text text-anchor="middle" x="102" y="-15.4" font-family="Times Roman,serif" font-size="14.00">Testquestion</text>
</g>
<!-- Role -->
<g id="node3" class="node"><title>Role</title>
<ellipse fill="none" stroke="black" cx="412" cy="-491" rx="32.0265" ry="18.3848"/>
<text text-anchor="middle" x="412" y="-487.4" font-family="Times Roman,serif" font-size="14.00">Role</text>
</g>
<!-- User -->
<g id="node17" class="node"><title>User</title>
<ellipse fill="none" stroke="black" cx="412" cy="-389" rx="33.9411" ry="18.3848"/>
<text text-anchor="middle" x="412" y="-385.4" font-family="Times Roman,serif" font-size="14.00">User</text>
</g>
<!-- Role&#45;&gt;User -->
<g id="edge2" class="edge"><title>Role&#45;&gt;User</title>
<path fill="none" stroke="#d38222" d="M412,-464.015C412,-449.835 412,-432.445 412,-417.98"/>
<ellipse fill="none" stroke="#d38222" cx="412" cy="-468.292" rx="4" ry="4"/>
<polygon fill="#d38222" stroke="#d38222" points="412,-417.59 416.5,-407.59 412,-412.59 412,-407.59 412,-407.59 412,-407.59 412,-412.59 407.5,-407.59 412,-417.59 412,-417.59"/>
</g>
<!-- Forum -->
<g id="node4" class="node"><title>Forum</title>
<ellipse fill="none" stroke="black" cx="588" cy="-93" rx="41.9273" ry="18.3848"/>
<text text-anchor="middle" x="588" y="-89.4" font-family="Times Roman,serif" font-size="14.00">Forum</text>
</g>
<!-- Post -->
<g id="node13" class="node"><title>Post</title>
<ellipse fill="none" stroke="black" cx="623" cy="-19" rx="32.0265" ry="18.3848"/>
<text text-anchor="middle" x="623" y="-15.4" font-family="Times Roman,serif" font-size="14.00">Post</text>
</g>
<!-- Forum&#45;&gt;Post -->
<g id="edge4" class="edge"><title>Forum&#45;&gt;Post</title>
<path fill="none" stroke="#f9effd" d="M600.122,-67.3701C603.367,-60.5096 606.885,-53.0715 610.167,-46.1328"/>
<ellipse fill="none" stroke="#f9effd" cx="598.362" cy="-71.0919" rx="4.00002" ry="4.00002"/>
<polygon fill="#f9effd" stroke="#f9effd" points="610.172,-46.1216 618.516,-39.0058 612.31,-41.6017 614.448,-37.0817 614.448,-37.0817 614.448,-37.0817 612.31,-41.6017 610.38,-35.1577 610.172,-46.1216 610.172,-46.1216"/>
</g>
<!-- Batchtest -->
<g id="node5" class="node"><title>Batchtest</title>
<ellipse fill="none" stroke="black" cx="782" cy="-315" rx="58.1882" ry="18.3848"/>
<text text-anchor="middle" x="782" y="-311.4" font-family="Times Roman,serif" font-size="14.00">Batchtest</text>
</g>
<!-- Solvedtest -->
<g id="node18" class="node"><title>Solvedtest</title>
<ellipse fill="none" stroke="black" cx="749" cy="-167" rx="62.9325" ry="18.3848"/>
<text text-anchor="middle" x="749" y="-163.4" font-family="Times Roman,serif" font-size="14.00">Solvedtest</text>
</g>
<!-- Batchtest&#45;&gt;Solvedtest -->
<g id="edge6" class="edge"><title>Batchtest&#45;&gt;Solvedtest</title>
<path fill="none" stroke="#0082b8" d="M776.066,-288.387C770.227,-262.201 761.342,-222.352 755.36,-195.525"/>
<ellipse fill="none" stroke="#0082b8" cx="776.95" cy="-292.352" rx="4.00001" ry="4.00001"/>
<polygon fill="#0082b8" stroke="#0082b8" points="755.322,-195.352 757.538,-184.613 754.234,-190.472 753.146,-185.592 753.146,-185.592 753.146,-185.592 754.234,-190.472 748.753,-186.571 755.322,-195.352 755.322,-195.352"/>
</g>
<!-- Topic -->
<g id="node6" class="node"><title>Topic</title>
<ellipse fill="none" stroke="black" cx="137" cy="-167" rx="34.8574" ry="18.3848"/>
<text text-anchor="middle" x="137" y="-163.4" font-family="Times Roman,serif" font-size="14.00">Topic</text>
</g>
<!-- Topic&#45;&gt;Forum -->
<g id="edge10" class="edge"><title>Topic&#45;&gt;Forum</title>
<path fill="none" stroke="#36aed6" d="M178.55,-160.182C261.91,-146.505 449.201,-115.774 538.639,-101.099"/>
<ellipse fill="none" stroke="#36aed6" cx="174.477" cy="-160.851" rx="4.00001" ry="4.00001"/>
<polygon fill="#36aed6" stroke="#36aed6" points="538.664,-101.095 549.261,-103.917 543.598,-100.285 548.532,-99.4759 548.532,-99.4759 548.532,-99.4759 543.598,-100.285 547.803,-95.0353 538.664,-101.095 538.664,-101.095"/>
</g>
<!-- Question -->
<g id="node14" class="node"><title>Question</title>
<ellipse fill="none" stroke="black" cx="102" cy="-93" rx="55.8614" ry="18.3848"/>
<text text-anchor="middle" x="102" y="-89.4" font-family="Times Roman,serif" font-size="14.00">Question</text>
</g>
<!-- Topic&#45;&gt;Question -->
<g id="edge8" class="edge"><title>Topic&#45;&gt;Question</title>
<path fill="none" stroke="#1bc484" d="M124.905,-141.427C121.759,-134.776 118.354,-127.578 115.157,-120.817"/>
<ellipse fill="none" stroke="#1bc484" cx="126.638" cy="-145.092" rx="4.00002" ry="4.00002"/>
<polygon fill="#1bc484" stroke="#1bc484" points="114.949,-120.378 114.741,-109.414 112.811,-115.858 110.673,-111.338 110.673,-111.338 110.673,-111.338 112.811,-115.858 106.606,-113.262 114.949,-120.378 114.949,-120.378"/>
</g>
<!-- Batch -->
<g id="node7" class="node"><title>Batch</title>
<ellipse fill="none" stroke="black" cx="446" cy="-315" rx="39.0967" ry="18.3848"/>
<text text-anchor="middle" x="446" y="-311.4" font-family="Times Roman,serif" font-size="14.00">Batch</text>
</g>
<!-- Batchstudent -->
<g id="node11" class="node"><title>Batchstudent</title>
<ellipse fill="none" stroke="black" cx="514" cy="-241" rx="77.7817" ry="18.3848"/>
<text text-anchor="middle" x="514" y="-237.4" font-family="Times Roman,serif" font-size="14.00">Batchstudent</text>
</g>
<!-- Batch&#45;&gt;Batchstudent -->
<g id="edge14" class="edge"><title>Batch&#45;&gt;Batchstudent</title>
<path fill="none" stroke="#5e74b9" d="M467.269,-291.854C474.624,-283.851 482.907,-274.836 490.435,-266.645"/>
<ellipse fill="none" stroke="#5e74b9" cx="464.478" cy="-294.892" rx="4.00002" ry="4.00002"/>
<polygon fill="#5e74b9" stroke="#5e74b9" points="490.599,-266.466 500.679,-262.147 493.982,-262.784 497.365,-259.102 497.365,-259.102 497.365,-259.102 493.982,-262.784 494.052,-256.058 490.599,-266.466 490.599,-266.466"/>
</g>
<!-- Jktest -->
<g id="node19" class="node"><title>Jktest</title>
<ellipse fill="none" stroke="black" cx="379" cy="-241" rx="39.0967" ry="18.3848"/>
<text text-anchor="middle" x="379" y="-237.4" font-family="Times Roman,serif" font-size="14.00">Jktest</text>
</g>
<!-- Batch&#45;&gt;Jktest -->
<g id="edge12" class="edge"><title>Batch&#45;&gt;Jktest</title>
<path fill="none" stroke="#e2e016" d="M423.485,-290.132C416.329,-282.229 408.421,-273.495 401.282,-265.61"/>
<polygon fill="#e2e016" stroke="#e2e016" points="423.749,-290.424 427.125,-300.857 427.105,-294.13 430.46,-297.837 430.46,-297.837 430.46,-297.837 427.105,-294.13 433.796,-294.817 423.749,-290.424 423.749,-290.424"/>
<polygon fill="#e2e016" stroke="#e2e016" points="401.167,-265.483 397.791,-255.05 397.811,-261.777 394.455,-258.07 394.455,-258.07 394.455,-258.07 397.811,-261.777 391.119,-261.09 401.167,-265.483 401.167,-265.483"/>
</g>
<!-- Student -->
<g id="node8" class="node"><title>Student</title>
<ellipse fill="none" stroke="black" cx="513" cy="-491" rx="50.9117" ry="18.3848"/>
<text text-anchor="middle" x="513" y="-487.4" font-family="Times Roman,serif" font-size="14.00">Student</text>
</g>
<!-- Ability -->
<g id="node9" class="node"><title>Ability</title>
<polygon fill="none" stroke="black" points="642,-509 582,-509 582,-473 642,-473 642,-509"/>
<text text-anchor="middle" x="612" y="-487.4" font-family="Times Roman,serif" font-size="14.00">Ability</text>
</g>
<!-- Teacher -->
<g id="node10" class="node"><title>Teacher</title>
<ellipse fill="none" stroke="black" cx="273" cy="-241" rx="48.9975" ry="18.3848"/>
<text text-anchor="middle" x="273" y="-237.4" font-family="Times Roman,serif" font-size="14.00">Teacher</text>
</g>
<!-- Subject -->
<g id="node12" class="node"><title>Subject</title>
<ellipse fill="none" stroke="black" cx="288" cy="-315" rx="48.0833" ry="18.3848"/>
<text text-anchor="middle" x="288" y="-311.4" font-family="Times Roman,serif" font-size="14.00">Subject</text>
</g>
<!-- Subject&#45;&gt;Teacher -->
<g id="edge16" class="edge"><title>Subject&#45;&gt;Teacher</title>
<path fill="none" stroke="#a8f5dd" d="M282.59,-288.309C281.357,-282.229 280.043,-275.745 278.795,-269.589"/>
<ellipse fill="none" stroke="#a8f5dd" cx="283.42" cy="-292.406" rx="4.00001" ry="4.00001"/>
<polygon fill="#a8f5dd" stroke="#a8f5dd" points="278.771,-269.468 281.194,-258.773 277.777,-264.568 276.784,-259.667 276.784,-259.667 276.784,-259.667 277.777,-264.568 272.374,-260.561 278.771,-269.468 278.771,-269.468"/>
</g>
<!-- Chapter -->
<g id="node15" class="node"><title>Chapter</title>
<ellipse fill="none" stroke="black" cx="155" cy="-241" rx="50.9117" ry="18.3848"/>
<text text-anchor="middle" x="155" y="-237.4" font-family="Times Roman,serif" font-size="14.00">Chapter</text>
</g>
<!-- Subject&#45;&gt;Chapter -->
<g id="edge18" class="edge"><title>Subject&#45;&gt;Chapter</title>
<path fill="none" stroke="#632f08" d="M253.265,-295.674C234.358,-285.154 210.973,-272.143 191.76,-261.453"/>
<ellipse fill="none" stroke="#632f08" cx="256.947" cy="-297.722" rx="4.00002" ry="4.00002"/>
<polygon fill="#632f08" stroke="#632f08" points="191.718,-261.43 185.168,-252.635 187.349,-258.999 182.98,-256.568 182.98,-256.568 182.98,-256.568 187.349,-258.999 180.792,-260.5 191.718,-261.43 191.718,-261.43"/>
</g>
<!-- Subject&#45;&gt;Jktest -->
<g id="edge20" class="edge"><title>Subject&#45;&gt;Jktest</title>
<path fill="none" stroke="#d93f4a" d="M314.92,-293.109C326.304,-283.852 339.561,-273.071 351.053,-263.726"/>
<ellipse fill="none" stroke="#d93f4a" cx="311.753" cy="-295.685" rx="4.00002" ry="4.00002"/>
<polygon fill="#d93f4a" stroke="#d93f4a" points="351.299,-263.526 361.897,-260.708 355.179,-260.371 359.058,-257.217 359.058,-257.217 359.058,-257.217 355.179,-260.371 356.219,-253.725 351.299,-263.526 351.299,-263.526"/>
</g>
<!-- Question&#45;&gt;Testquestion -->
<g id="edge22" class="edge"><title>Question&#45;&gt;Testquestion</title>
<path fill="none" stroke="#d7d07a" d="M102,-66.309C102,-60.3769 102,-54.0606 102,-48.0396"/>
<ellipse fill="none" stroke="#d7d07a" cx="102" cy="-70.3267" rx="4" ry="4"/>
<polygon fill="#d7d07a" stroke="#d7d07a" points="102,-47.6674 106.5,-37.6673 102,-42.6674 102,-37.6674 102,-37.6674 102,-37.6674 102,-42.6674 97.5,-37.6674 102,-47.6674 102,-47.6674"/>
</g>
<!-- Chapter&#45;&gt;Topic -->
<g id="edge24" class="edge"><title>Chapter&#45;&gt;Topic</title>
<path fill="none" stroke="#2b6cd7" d="M148.563,-214.535C147.06,-208.357 145.453,-201.751 143.93,-195.489"/>
<ellipse fill="none" stroke="#2b6cd7" cx="149.512" cy="-218.44" rx="4.00001" ry="4.00001"/>
<polygon fill="#2b6cd7" stroke="#2b6cd7" points="143.842,-195.128 145.851,-184.347 142.66,-190.269 141.478,-185.411 141.478,-185.411 141.478,-185.411 142.66,-190.269 137.106,-186.475 143.842,-195.128 143.842,-195.128"/>
</g>
<!-- Admin -->
<g id="node16" class="node"><title>Admin</title>
<ellipse fill="none" stroke="black" cx="702" cy="-491" rx="41.9273" ry="18.3848"/>
<text text-anchor="middle" x="702" y="-487.4" font-family="Times Roman,serif" font-size="14.00">Admin</text>
</g>
<!-- User&#45;&gt;Testquestion -->
<g id="edge42" class="edge"><title>User&#45;&gt;Testquestion</title>
<path fill="none" stroke="#33eb86" d="M370.155,-385.322C293.615,-378.045 134.467,-360.215 86,-334 36.4819,-307.217 0,-297.297 0,-241 0,-241 0,-241 0,-167 0,-122.516 11.023,-110.112 37,-74 45.3922,-62.3336 56.7846,-51.5961 67.6881,-42.7644"/>
<ellipse fill="none" stroke="#33eb86" cx="374.2" cy="-385.701" rx="4" ry="4"/>
<polygon fill="#33eb86" stroke="#33eb86" points="67.9794,-42.5379 78.6357,-39.9506 71.9261,-39.4682 75.8729,-36.3985 75.8729,-36.3985 75.8729,-36.3985 71.9261,-39.4682 73.1102,-32.8464 67.9794,-42.5379 67.9794,-42.5379"/>
</g>
<!-- User&#45;&gt;Forum -->
<g id="edge32" class="edge"><title>User&#45;&gt;Forum</title>
<path fill="none" stroke="#a3d7d0" d="M449.308,-376.951C495.694,-359.616 572.264,-322.635 601,-260 621.715,-214.847 608.995,-155.592 598.238,-121.162"/>
<ellipse fill="none" stroke="#a3d7d0" cx="445.335" cy="-378.397" rx="4.00001" ry="4.00001"/>
<polygon fill="#a3d7d0" stroke="#a3d7d0" points="598.125,-120.817 599.277,-109.911 596.564,-116.067 595.002,-111.317 595.002,-111.317 595.002,-111.317 596.564,-116.067 590.727,-112.722 598.125,-120.817 598.125,-120.817"/>
</g>
<!-- User&#45;&gt;Batchtest -->
<g id="edge44" class="edge"><title>User&#45;&gt;Batchtest</title>
<path fill="none" stroke="#3c6017" d="M452.921,-382.453C510.537,-373.007 618.741,-354.432 710,-334 715.819,-332.697 721.878,-331.247 727.903,-329.745"/>
<ellipse fill="none" stroke="#3c6017" cx="448.743" cy="-383.135" rx="4.00001" ry="4.00001"/>
<polygon fill="#3c6017" stroke="#3c6017" points="728.269,-329.652 739.07,-331.546 733.114,-328.418 737.96,-327.185 737.96,-327.185 737.96,-327.185 733.114,-328.418 736.849,-322.824 728.269,-329.652 728.269,-329.652"/>
</g>
<!-- User&#45;&gt;Topic -->
<g id="edge30" class="edge"><title>User&#45;&gt;Topic</title>
<path fill="none" stroke="#a4c944" d="M370.379,-384.105C324.181,-377.476 248.32,-362.974 189,-334 141.224,-310.664 118.22,-307.832 95,-260 87.6244,-244.807 89.5899,-237.999 95,-222 98.7717,-210.846 105.811,-200.172 113.062,-191.245"/>
<ellipse fill="none" stroke="#a4c944" cx="374.408" cy="-384.665" rx="4.00001" ry="4.00001"/>
<polygon fill="#a4c944" stroke="#a4c944" points="113.154,-191.139 123.099,-186.517 116.425,-187.356 119.695,-183.574 119.695,-183.574 119.695,-183.574 116.425,-187.356 116.291,-180.631 113.154,-191.139 113.154,-191.139"/>
</g>
<!-- User&#45;&gt;Batch -->
<g id="edge38" class="edge"><title>User&#45;&gt;Batch</title>
<path fill="none" stroke="#7fdd56" d="M423.776,-363.37C426.856,-356.666 430.19,-349.409 433.316,-342.607"/>
<ellipse fill="none" stroke="#7fdd56" cx="422.075" cy="-367.073" rx="4.00002" ry="4.00002"/>
<polygon fill="#7fdd56" stroke="#7fdd56" points="433.517,-342.169 441.781,-334.96 435.605,-337.625 437.692,-333.082 437.692,-333.082 437.692,-333.082 435.605,-337.625 433.603,-331.203 433.517,-342.169 433.517,-342.169"/>
</g>
<!-- User&#45;&gt;Batchstudent -->
<g id="edge40" class="edge"><title>User&#45;&gt;Batchstudent</title>
<path fill="none" stroke="#12a436" d="M446.479,-373.66C463.275,-364.481 482.319,-351.224 494,-334 506.826,-315.086 511.63,-289.448 513.337,-269.88"/>
<ellipse fill="none" stroke="#12a436" cx="442.5" cy="-375.738" rx="4.00002" ry="4.00002"/>
<polygon fill="#12a436" stroke="#12a436" points="513.349,-269.694 518.488,-260.007 513.673,-264.704 513.997,-259.715 513.997,-259.715 513.997,-259.715 513.673,-264.704 509.507,-259.423 513.349,-269.694 513.349,-269.694"/>
</g>
<!-- User&#45;&gt;Subject -->
<g id="edge26" class="edge"><title>User&#45;&gt;Subject</title>
<path fill="none" stroke="#e64df0" d="M381.958,-371.072C364.213,-360.482 341.662,-347.024 323.101,-335.947"/>
<ellipse fill="none" stroke="#e64df0" cx="385.532" cy="-373.205" rx="4.00002" ry="4.00002"/>
<polygon fill="#e64df0" stroke="#e64df0" points="322.935,-335.849 316.654,-326.86 318.642,-333.286 314.348,-330.724 314.348,-330.724 314.348,-330.724 318.642,-333.286 312.042,-334.588 322.935,-335.849 322.935,-335.849"/>
</g>
<!-- User&#45;&gt;Post -->
<g id="edge34" class="edge"><title>User&#45;&gt;Post</title>
<path fill="none" stroke="#acbeb3" d="M453.392,-383.31C523.483,-371.092 658,-335.353 658,-241 658,-241 658,-241 658,-167 658,-124.251 644,-76.3748 633.708,-46.9571"/>
<ellipse fill="none" stroke="#acbeb3" cx="449.122" cy="-384.025" rx="4.00001" ry="4.00001"/>
<polygon fill="#acbeb3" stroke="#acbeb3" points="633.641,-46.7686 634.486,-35.8354 631.946,-42.0644 630.252,-37.3602 630.252,-37.3602 630.252,-37.3602 631.946,-42.0644 626.018,-38.8851 633.641,-46.7686 633.641,-46.7686"/>
</g>
<!-- User&#45;&gt;Question -->
<g id="edge48" class="edge"><title>User&#45;&gt;Question</title>
<path fill="none" stroke="#81d69c" d="M370.03,-386.09C298.064,-380.315 155.169,-365.182 117,-334 54.7361,-283.135 77.3457,-173.221 92.6055,-121.281"/>
<ellipse fill="none" stroke="#81d69c" cx="374.036" cy="-386.403" rx="4" ry="4"/>
<polygon fill="#81d69c" stroke="#81d69c" points="92.6998,-120.973 99.9279,-112.726 94.1622,-116.191 95.6246,-111.41 95.6246,-111.41 95.6246,-111.41 94.1622,-116.191 91.3214,-110.094 92.6998,-120.973 92.6998,-120.973"/>
</g>
<!-- User&#45;&gt;Chapter -->
<g id="edge28" class="edge"><title>User&#45;&gt;Chapter</title>
<path fill="none" stroke="#187cac" d="M370.832,-383.543C332.091,-376.857 273.793,-362.673 231,-334 205.499,-316.913 184.194,-288.724 170.693,-267.852"/>
<ellipse fill="none" stroke="#187cac" cx="374.843" cy="-384.206" rx="4.00001" ry="4.00001"/>
<polygon fill="#187cac" stroke="#187cac" points="170.535,-267.599 169.036,-256.736 167.879,-263.363 165.223,-259.126 165.223,-259.126 165.223,-259.126 167.879,-263.363 161.411,-261.516 170.535,-267.599 170.535,-267.599"/>
</g>
<!-- User&#45;&gt;Solvedtest -->
<g id="edge46" class="edge"><title>User&#45;&gt;Solvedtest</title>
<path fill="none" stroke="#843bb9" d="M453.621,-384.751C518.234,-377.418 638.716,-360.566 672,-334 715.906,-298.956 735.833,-233.191 744.001,-195.491"/>
<ellipse fill="none" stroke="#843bb9" cx="449.624" cy="-385.197" rx="4.00001" ry="4.00001"/>
<polygon fill="#843bb9" stroke="#843bb9" points="744.01,-195.45 750.413,-186.548 745.007,-190.551 746.004,-185.651 746.004,-185.651 746.004,-185.651 745.007,-190.551 741.594,-184.754 744.01,-195.45 744.01,-195.45"/>
</g>
<!-- User&#45;&gt;Jktest -->
<g id="edge36" class="edge"><title>User&#45;&gt;Jktest</title>
<path fill="none" stroke="#fcf83c" d="M404.995,-362.551C402.675,-353.517 400.141,-343.338 398,-334 393.051,-312.416 388.063,-287.867 384.44,-269.413"/>
<ellipse fill="none" stroke="#fcf83c" cx="406.044" cy="-366.597" rx="4.00001" ry="4.00001"/>
<polygon fill="#fcf83c" stroke="#fcf83c" points="384.437,-269.399 386.943,-258.723 383.481,-264.491 382.526,-259.584 382.526,-259.584 382.526,-259.584 383.481,-264.491 378.109,-260.444 384.437,-269.399 384.437,-269.399"/>
</g>
<!-- Jktest&#45;&gt;Testquestion -->
<g id="edge50" class="edge"><title>Jktest&#45;&gt;Testquestion</title>
<path fill="none" stroke="#3a3477" d="M352.812,-220.012C301.164,-178.619 186.463,-86.6926 131.925,-42.9831"/>
<ellipse fill="none" stroke="#3a3477" cx="355.958" cy="-222.533" rx="4.00002" ry="4.00002"/>
<polygon fill="#3a3477" stroke="#3a3477" points="131.821,-42.9001 126.832,-33.1348 127.92,-39.7732 124.018,-36.6462 124.018,-36.6462 124.018,-36.6462 127.92,-39.7732 121.204,-40.1577 131.821,-42.9001 131.821,-42.9001"/>
</g>
<!-- Jktest&#45;&gt;Solvedtest -->
<g id="edge52" class="edge"><title>Jktest&#45;&gt;Solvedtest</title>
<path fill="none" stroke="#b559b6" d="M415.594,-225.618C419.409,-224.285 423.259,-223.048 427,-222 512.404,-198.084 613.625,-182.863 679.47,-174.639"/>
<ellipse fill="none" stroke="#b559b6" cx="411.613" cy="-227.08" rx="4.00001" ry="4.00001"/>
<polygon fill="#b559b6" stroke="#b559b6" points="679.8,-174.598 690.274,-177.845 684.763,-173.988 689.726,-173.379 689.726,-173.379 689.726,-173.379 684.763,-173.988 689.177,-168.912 679.8,-174.598 679.8,-174.598"/>
</g>
</g>
</svg>
